<?xml version="1.0" encoding="UTF-8" standalone="no"?>
<!DOCTYPE svg PUBLIC "-//W3C//DTD SVG 1.1//EN" "http://www.w3.org/Graphics/SVG/1.1/DTD/svg11.dtd">
<svg width="100%" height="100%" viewBox="0 0 98 20" version="1.1" xmlns="http://www.w3.org/2000/svg" xmlns:xlink="http://www.w3.org/1999/xlink" xml:space="preserve" xmlns:serif="http://www.serif.com/" style="fill-rule:evenodd;clip-rule:evenodd;stroke-linejoin:round;stroke-miterlimit:2;">
    <g>
        <rect x="0" y="0" width="49" height="20" style="fill:rgb(85,85,85);"/>
        <rect x="49" y="0" width="49" height="20" style="fill:rgb(0,126,198);"/>
        <rect x="0" y="0" width="98" height="20" style="fill:url(#_Linear1);"/>
    </g>
    <g>
        <g transform="matrix(0.1,0,0,0.1,25.5,15)">
            <g>
                <g transform="matrix(1,0,0,1,-191.345,0)">
                    <text x="0px" y="0px" style="font-family:'Verdana', sans-serif;font-size:110px;fill:rgb(1,1,1);fill-opacity:0.3;">p</text>
                </g>
                <g transform="matrix(1,0,0,1,-123.079,0)">
                    <text x="0px" y="0px" style="font-family:'Verdana', sans-serif;font-size:110px;fill:rgb(1,1,1);fill-opacity:0.3;">ython</text>
                </g>
            </g>
        </g>
        <g transform="matrix(0.1,0,0,0.1,25.5,14)">
            <g>
                <g transform="matrix(1,0,0,1,-191.345,0)">
                    <text x="0px" y="0px" style="font-family:'Verdana', sans-serif;font-size:110px;fill:white;">p</text>
                </g>
                <g transform="matrix(1,0,0,1,-123.079,0)">
                    <text x="0px" y="0px" style="font-family:'Verdana', sans-serif;font-size:110px;fill:white;">ython</text>
                </g>
            </g>
        </g>
        <g transform="matrix(0.1,0,0,0.1,72.5,15)">
            <g transform="matrix(1,0,0,1,-234.26,0)">
                <g transform="matrix(110,0,0,110,468.520508,0)">
                </g>
                <text x="0px" y="0px" style="font-family:'Verdana', sans-serif;font-size:110px;fill:rgb(1,1,1);fill-opacity:0.3;">&gt;= 3.12</text>
            </g>
        </g>
        <g transform="matrix(0.1,0,0,0.1,72.5,14)">
            <g transform="matrix(1,0,0,1,-234.26,0)">
                <g transform="matrix(110,0,0,110,468.520508,0)">
                </g>
                <text x="0px" y="0px" style="font-family:'Verdana', sans-serif;font-size:110px;fill:white;">&gt;= 3.12</text>
            </g>
        </g>
    </g>
    <defs>
        <linearGradient id="_Linear1" x1="0" y1="0" x2="1" y2="0" gradientUnits="userSpaceOnUse" gradientTransform="matrix(0,20,-20,0,0,0)"><stop offset="0" style="stop-color:rgb(187,187,187);stop-opacity:0.1"/><stop offset="1" style="stop-color:black;stop-opacity:0.1"/></linearGradient>
    </defs>
</svg>
